<svg xmlns="http://www.w3.org/2000/svg" width="429" height="81.43147267108347" viewBox="0 0 369.65517241379314 70.16681834531106" class="css-1j8o68f"><defs id="SvgjsDefs1247"></defs><g id="SvgjsG1248" featurekey="Df7oLJ-0" transform="matrix(0.7016690399827004,0,0,0.7016690399827004,-4.911317916475744,0)" fill="#11999e"><path xmlns="http://www.w3.org/2000/svg" d="M41.167,82.902c9.335,0,27.45-4.182,39.55-9.85c0.252,3.074,0.434,5.568,0.568,7.172  c0.858,10.128-43.351,21.811-54.081,19.474c-10.73-2.336-23.746-55.997-19.315-61.92c1.698-2.271,4.685-4.441,8.452-6.426  c1.51,11.479,5.82,27.164,9.886,36.824c3.73,8.863,7.324,13.565,10.985,14.374C38.272,82.783,39.602,82.902,41.167,82.902  C41.167,82.902,41.167,82.902,41.167,82.902z M29.952,66.848c3.531,8.387,6.546,11.764,8.193,12.127  c0.754,0.167,1.771,0.252,3.022,0.252c9.097,0,27.976-4.561,39.206-10.16C78.813,51.93,75.178,23.842,65.833,21.42  c-8.72-2.262-30.996,1.631-45.682,8.102c0.275,2.377,0.711,5.209,1.357,8.532C23.485,48.217,26.641,58.982,29.952,66.848z   M92.983,61.149c-0.063-0.75-0.135-1.694-0.219-2.804c-0.541-7.094-1.547-20.296-3.814-32.295  C85.963,10.25,81.945,2.199,76.307,0.717C74.496,0.24,72.161,0,69.369,0C53.928,0,24.477,7.646,16.985,17.809  c-1.458,1.979-1.492,7.098-0.644,13.543c1.196-0.629,2.471-1.24,3.81-1.83c-0.679-5.859-0.385-8.936,0.14-9.648  c2.867-3.889,10.582-8.008,21.167-11.304c9.695-3.019,20.391-4.894,27.911-4.894c2.421,0,4.387,0.193,5.841,0.576  c2.188,0.575,6.368,4.254,9.805,22.43c2.232,11.813,3.229,24.894,3.766,31.922c0.084,1.117,0.157,2.071,0.221,2.828  c0.09,1.07-0.836,2.234-1.627,3.021c-1.577,1.566-4.022,3.127-7.002,4.613c0.128,1.409,0.242,2.745,0.345,3.986  c4.06-1.9,7.44-3.969,9.587-6.102C92.243,65.023,93.144,63.072,92.983,61.149z"></path></g><g id="SvgjsG1249" featurekey="Ua4uQk-0" transform="matrix(2.0665212893108635,0,0,2.0665212893108635,77.52017533968169,5.096837885974379)" fill="#40514e"><path d="M16.3 6 l0 14 l-3.32 0 l0 -6.76 l-2.86 6.76 l-2.78 0 l-2.82 -6.72 l0 6.72 l-3.32 0 l0 -14 l3.18 0 l4.38 9.72 l4.36 -9.72 l3.18 0 z M26 9.6 l3.16 0 l0 10.4 l-3.16 0 l0 -1.04 c-0.14 0.36 -1.08 1.24 -2.68 1.24 c-2.38 0 -5.12 -1.7 -5.12 -5.42 c0 -3.58 2.74 -5.36 5.12 -5.36 c1.6 0 2.54 0.92 2.68 1.14 l0 -0.96 z M23.78 17.42 c1.3 0 2.36 -0.9 2.36 -2.64 c0 -1.68 -1.06 -2.58 -2.36 -2.58 c-1.36 0 -2.52 0.92 -2.52 2.58 c0 1.72 1.16 2.64 2.52 2.64 z M37.88 9.44 c0.28 0 0.56 0 0.82 0.06 l0 3.02 c-0.24 -0.06 -0.52 -0.06 -0.72 -0.06 c-1.92 0 -3.46 1.38 -3.62 3.3 l0 4.24 l-3.16 0 l0 -10.4 l3.16 0 l0 2.54 c0.48 -1.56 1.68 -2.7 3.52 -2.7 z M47.519999999999996 20 l-3.38 -4.04 l-0.66 0.7 l0 3.34 l-3.16 0 l0 -3.78 l0 -10.36 l3.16 0 l0 6.94 l2.94 -3.2 l3.78 0 l-4.12 4.34 l5.04 6.06 l-3.6 0 z M57.699999999999996 9.42 c2.36 0 5.66 1.78 5 6.48 l-7.26 0 c0.36 1.08 1.3 1.64 2.56 1.64 c1.28 0 1.68 -0.28 2.4 -0.58 l1.74 1.68 c-0.92 0.9 -2.16 1.56 -4.26 1.56 c-2.58 0 -5.66 -1.78 -5.66 -5.36 c0 -3.64 3.12 -5.42 5.48 -5.42 z M57.699999999999996 12.120000000000001 c-0.9 0 -1.82 0.52 -2.22 1.56 l4.42 0 c-0.32 -1.04 -1.3 -1.56 -2.2 -1.56 z M69.56 17.36 c0.56 0 0.96 -0.08 1.4 -0.2 l0 2.62 c-0.44 0.2 -1.16 0.34 -2.22 0.34 c-1.74 0 -3.2 -0.58 -3.2 -3.78 l0 -4.14 l-1.46 0 l0 -2.6 l1.46 0 l0 -2.44 l3.16 0 l0 2.44 l2.22 0 l0 2.6 l-2.22 0 l0 4.14 c0 0.46 0.12 1.02 0.86 1.02 z M77.48 5.76 c2.52 0 4.06 1.56 4.82 2.88 l-2.36 1.42 c-0.78 -1 -1.46 -1.46 -2.46 -1.46 c-0.86 0 -1.5 0.5 -1.5 1.2 c0 0.72 0.4 1.08 1.4 1.42 l0.94 0.34 c3.26 1.14 4.38 2.58 4.38 4.44 c0 2.92 -2.76 4.3 -5.16 4.3 c-2.56 0 -4.52 -1.52 -5.22 -3.46 l2.46 -1.32 c0.5 0.9 1.24 1.88 2.76 1.88 c1.04 0 1.82 -0.42 1.82 -1.36 c0 -0.86 -0.48 -1.26 -1.98 -1.82 l-0.8 -0.28 c-2.06 -0.74 -3.8 -1.72 -3.8 -4.28 c0 -2.28 2.16 -3.9 4.7 -3.9 z M91.9 9.6 l3.16 0 l0 10.4 l0 3.8 l-3.16 0 l0 -4.84 c-0.14 0.36 -1.08 1.24 -2.68 1.24 c-2.38 0 -5.12 -1.7 -5.12 -5.42 c0 -3.58 2.74 -5.36 5.12 -5.36 c1.6 0 2.54 0.92 2.68 1.14 l0 -0.96 z M89.68 17.42 c1.3 0 2.36 -0.9 2.36 -2.64 c0 -1.68 -1.06 -2.58 -2.36 -2.58 c-1.36 0 -2.52 0.92 -2.52 2.58 c0 1.72 1.16 2.64 2.52 2.64 z M100.9 20.16 c-1.94 0 -3.92 -1.3 -3.92 -4.6 l0 -5.96 l3.16 0 l0 5.74 c0 1.58 0.54 2.08 1.54 2.08 c1.42 0 2.24 -1.38 2.44 -1.98 l0 -5.84 l3.16 0 l0 10.4 l-3.16 0 l0 -1.8 c-0.2 0.5 -1.26 1.96 -3.22 1.96 z M116.80000000000001 9.6 l3.16 0 l0 10.4 l-3.16 0 l0 -1.04 c-0.14 0.36 -1.08 1.24 -2.68 1.24 c-2.38 0 -5.12 -1.7 -5.12 -5.42 c0 -3.58 2.74 -5.36 5.12 -5.36 c1.6 0 2.54 0.92 2.68 1.14 l0 -0.96 z M114.58000000000001 17.42 c1.3 0 2.36 -0.9 2.36 -2.64 c0 -1.68 -1.06 -2.58 -2.36 -2.58 c-1.36 0 -2.52 0.92 -2.52 2.58 c0 1.72 1.16 2.64 2.52 2.64 z M128.68 9.44 c0.28 0 0.56 0 0.82 0.06 l0 3.02 c-0.24 -0.06 -0.52 -0.06 -0.72 -0.06 c-1.92 0 -3.46 1.38 -3.62 3.3 l0 4.24 l-3.16 0 l0 -10.4 l3.16 0 l0 2.54 c0.48 -1.56 1.68 -2.7 3.52 -2.7 z M136.28000000000003 9.42 c2.36 0 5.66 1.78 5 6.48 l-7.26 0 c0.36 1.08 1.3 1.64 2.56 1.64 c1.28 0 1.68 -0.28 2.4 -0.58 l1.74 1.68 c-0.92 0.9 -2.16 1.56 -4.26 1.56 c-2.58 0 -5.66 -1.78 -5.66 -5.36 c0 -3.64 3.12 -5.42 5.48 -5.42 z M136.28000000000003 12.120000000000001 c-0.9 0 -1.82 0.52 -2.22 1.56 l4.42 0 c-0.32 -1.04 -1.3 -1.56 -2.2 -1.56 z"></path></g></svg>
